<?xml version="1.0" encoding="utf-8"?>
<!-- Generator: Adobe Illustrator 24.0.3, SVG Export Plug-In . SVG Version: 6.00 Build 0)  -->
<svg version="1.1" id="Ebene_1" xmlns="http://www.w3.org/2000/svg" xmlns:xlink="http://www.w3.org/1999/xlink" x="0px" y="0px"
	 viewBox="0 0 60 60" style="enable-background:new 0 0 60 60;" xml:space="preserve">
<style type="text/css">
	.st0{opacity:0.8;}
	.st1{fill:#333333;}
	.st2{fill:#FFFFFF;}
</style>
<g id="play_32-w" transform="translate(0 0.168)" class="st0">
	<path id="Pfad_301" class="st1" d="M30-0.2c-16.6,0-30,13.4-30,30s13.4,30,30,30c16.6,0,30-13.4,30-30c0,0,0,0,0,0
		C60,13.3,46.6-0.2,30-0.2z M30,55.5C15.8,55.5,4.3,44,4.3,29.8C4.3,15.6,15.8,4.1,30,4.1c14.2,0,25.7,11.5,25.7,25.7c0,0,0,0,0,0
		C55.7,44,44.2,55.5,30,55.5z"/>
	<g id="Gruppe_2901" transform="translate(12.058 12.049)">
		<g id="Gruppe_2900">
			<path id="Pfad_302" class="st1" d="M17.9-3.7C6.1-3.7-3.5,5.9-3.5,17.8s9.6,21.4,21.4,21.4s21.4-9.6,21.4-21.4S29.8-3.7,17.9-3.7
				C17.9-3.7,17.9-3.7,17.9-3.7z M11.5,27.9V7.9L28,18L11.5,27.9z"/>
		</g>
	</g>
</g>
<polygon class="st2" points="23.6,40.1 23.6,20.1 40.1,30.2 "/>
</svg>
